<?xml version="1.0" encoding="UTF-8" standalone="no"?>
<!DOCTYPE svg PUBLIC "-//W3C//DTD SVG 1.1//EN" "http://www.w3.org/Graphics/SVG/1.1/DTD/svg11.dtd">
<svg width="100%" height="100%" viewBox="0 0 32 32" version="1.1" xmlns="http://www.w3.org/2000/svg" xmlns:xlink="http://www.w3.org/1999/xlink" xml:space="preserve" xmlns:serif="http://www.serif.com/" style="fill-rule:evenodd;clip-rule:evenodd;stroke-linecap:round;stroke-linejoin:round;stroke-miterlimit:1.5;">
    <circle cx="16" cy="16" r="16" style="fill:rgb(245,245,245);"/>
    <path d="M16,0C24.831,0 32,7.169 32,16C32,24.831 24.831,32 16,32C7.169,32 0,24.831 0,16C0,7.169 7.169,0 16,0ZM16,1C7.721,1 1,7.721 1,16C1,24.279 7.721,31 16,31C24.279,31 31,24.279 31,16C31,7.721 24.279,1 16,1Z" style="fill:rgb(117,117,117);"/>
    <g transform="matrix(0.8125,0,0,0.8125,3,3)">
        <circle cx="16" cy="16" r="16" style="fill:url(#_Linear1);"/>
        <path d="M16,-1.231C25.51,-1.231 33.231,6.49 33.231,16C33.231,25.51 25.51,33.231 16,33.231C6.49,33.231 -1.231,25.51 -1.231,16C-1.231,6.49 6.49,-1.231 16,-1.231ZM16,0C7.169,0 0,7.169 0,16C0,24.831 7.169,32 16,32C24.831,32 32,24.831 32,16C32,7.169 24.831,0 16,0Z" style="fill:rgb(0,166,81);"/>
    </g>
    <path d="M16,3L7.016,25.765L28.388,11.167L3.786,11.132L23.66,26.8L16,3Z" style="fill:none;stroke:rgb(0,166,81);stroke-width:1px;"/>
    <defs>
        <linearGradient id="_Linear1" x1="0" y1="0" x2="1" y2="0" gradientUnits="userSpaceOnUse" gradientTransform="matrix(1.94356e-15,-31.7408,31.7408,1.94356e-15,16,32)"><stop offset="0" style="stop-color:rgb(222,222,222);stop-opacity:1"/><stop offset="1" style="stop-color:rgb(174,174,174);stop-opacity:1"/></linearGradient>
    </defs>
</svg>
